<?xml version="1.0" standalone="no"?>
<!DOCTYPE svg PUBLIC "-//W3C//DTD SVG 20010904//EN"
 "http://www.w3.org/TR/2001/REC-SVG-20010904/DTD/svg10.dtd">
<svg version="1.0" xmlns="http://www.w3.org/2000/svg"
 width="1278.000000pt" height="1280.000000pt" viewBox="0 0 1278.000000 1280.000000"
 preserveAspectRatio="xMidYMid meet">
<g transform="translate(0.000000,1280.000000) scale(0.100000,-0.100000)"
fill="#000000" stroke="none">
<path d="M6717 12420 c-104 -33 -199 -107 -314 -243 -232 -277 -428 -653 -893
-1717 -412 -941 -608 -1307 -810 -1510 -116 -116 -232 -166 -445 -190 -144
-16 -481 -12 -752 10 -264 21 -329 27 -888 90 -727 82 -914 98 -1230 109 -645
21 -977 -63 -1081 -277 -26 -53 -31 -184 -9 -258 60 -208 251 -470 595 -814
202 -203 396 -382 845 -780 176 -156 370 -329 430 -384 536 -491 777 -771 862
-1004 23 -62 25 -76 20 -202 -12 -303 -138 -656 -587 -1650 -431 -953 -582
-1348 -650 -1695 -67 -349 -13 -558 168 -647 66 -33 68 -33 207 -32 123 1 154
5 257 32 311 83 743 292 1443 697 1136 657 1403 793 1725 880 201 53 307 43
495 -49 283 -138 548 -350 1365 -1090 496 -450 762 -678 986 -846 530 -399
864 -495 1051 -302 108 111 150 301 140 627 -12 353 -70 695 -278 1627 -210
948 -269 1300 -269 1598 1 286 52 408 242 585 217 201 524 399 1293 835 1069
606 1372 804 1635 1069 174 174 236 296 228 441 -4 69 -9 87 -40 137 -91 149
-308 261 -681 353 -323 79 -708 133 -1517 215 -1109 111 -1520 187 -1794 328
-130 67 -199 149 -292 342 -113 235 -225 632 -374 1335 -204 960 -284 1296
-375 1580 -181 561 -379 823 -618 819 -18 0 -58 -8 -90 -19z"/>
</g>
</svg>
